<?xml version="1.0" encoding="UTF-8" standalone="no"?>
<!DOCTYPE svg PUBLIC "-//W3C//DTD SVG 1.1//EN" "http://www.w3.org/Graphics/SVG/1.1/DTD/svg11.dtd">
<svg xmlns="http://www.w3.org/2000/svg" version="1.1" viewBox="0.00 0.00 887.00 623.00">
<path fill="#ff6800" d="
  M 195.01 401.98
  Q 195.10 295.21 195.03 188.44
  Q 195.02 175.79 196.45 169.68
  Q 199.90 154.92 210.55 144.40
  Q 214.73 140.27 226.63 132.60
  Q 315.58 75.24 404.47 17.80
  Q 416.48 10.04 421.79 7.86
  Q 440.38 0.24 459.39 7.17
  Q 465.37 9.35 475.90 16.14
  Q 566.63 74.70 657.37 133.27
  Q 668.88 140.70 673.28 145.30
  Q 683.10 155.56 686.41 169.55
  Q 687.81 175.46 687.81 187.05
  Q 687.83 294.61 687.82 402.09
  Q 687.82 402.49 688.22 402.49
  L 766.27 402.49
  Q 766.80 402.49 766.80 403.02
  L 766.80 539.26
  A 0.34 0.34 0.0 0 1 766.46 539.60
  Q 675.42 539.65 584.25 539.61
  Q 582.00 539.61 580.84 540.36
  Q 525.25 576.02 469.76 611.81
  C 455.41 621.07 437.33 622.41 422.13 616.33
  Q 417.01 614.28 404.81 606.41
  Q 353.47 573.25 302.48 540.35
  A 4.50 4.46 -28.3 0 0 300.04 539.63
  L 113.54 539.62
  Q 113.20 539.62 113.20 539.29
  L 113.20 403.02
  Q 113.20 402.49 113.73 402.49
  L 194.49 402.49
  Q 195.01 402.49 195.01 401.98
  Z
  M 455.07 14.80
  C 442.80 10.86 428.97 12.38 418.13 19.38
  Q 324.87 79.58 231.61 139.76
  Q 219.51 147.57 215.62 151.66
  Q 207.68 160.02 205.04 171.35
  Q 203.77 176.82 203.76 191.26
  Q 203.74 296.59 203.78 402.01
  Q 203.78 402.49 204.26 402.49
  L 678.98 402.49
  A 0.15 0.14 -0.0 0 0 679.13 402.35
  Q 679.11 296.53 679.13 190.75
  Q 679.13 176.40 677.75 170.85
  C 674.43 157.49 666.49 149.44 654.98 142.02
  Q 562.80 82.58 470.63 23.12
  Q 460.37 16.50 455.07 14.80
  Z
  M 758.12 411.60
  A 0.37 0.37 0.0 0 0 757.75 411.23
  L 122.25 411.23
  A 0.37 0.37 0.0 0 0 121.88 411.60
  L 121.88 530.50
  A 0.37 0.37 0.0 0 0 122.25 530.87
  L 757.75 530.87
  A 0.37 0.37 0.0 0 0 758.12 530.50
  L 758.12 411.60
  Z
  M 565.48 539.61
  L 318.01 539.63
  Q 317.44 539.63 317.92 539.94
  Q 367.20 571.77 416.52 603.52
  Q 435.55 615.77 455.48 608.97
  Q 461.14 607.04 471.41 600.40
  Q 518.17 570.20 565.49 539.67
  A 0.03 0.03 0.0 0 0 565.48 539.61
  Z"
/>
<path fill="#ff6800" d="
  M 450.91 37.08
  C 442.48 32.89 434.43 33.31 426.18 38.56
  A 2.10 2.10 0.0 0 1 423.20 37.80
  L 422.87 37.20
  Q 421.48 34.66 423.97 33.17
  Q 439.71 23.76 455.69 32.94
  Q 458.03 34.29 457.32 36.89
  L 457.19 37.37
  A 1.95 1.95 0.0 0 1 454.61 38.67
  Q 452.38 37.80 450.91 37.08
  Z"
/>
<path fill="#ff6800" d="
  M 396.40 181.49
  A 0.29 0.29 0.0 0 0 396.08 181.08
  C 386.29 183.35 345.57 191.79 345.72 173.12
  Q 345.73 172.62 346.14 172.33
  L 387.15 143.60
  A 2.76 2.76 0.0 0 0 387.80 139.72
  L 367.11 111.23
  A 3.43 3.42 -39.2 0 1 367.57 106.68
  L 368.36 105.96
  A 3.87 3.86 -39.2 0 1 374.09 106.54
  L 387.63 125.14
  Q 388.11 125.80 388.11 124.98
  L 388.11 105.25
  A 0.22 0.21 -72.2 0 1 388.45 105.07
  L 438.60 142.68
  A 0.79 0.78 16.7 0 1 438.92 143.27
  L 442.51 197.25
  Q 442.55 197.81 442.00 197.79
  L 440.77 197.74
  A 1.23 1.19 -64.5 0 0 439.94 198.05
  C 425.37 211.17 404.84 214.75 386.01 210.90
  Q 385.50 210.79 385.62 210.28
  Q 389.35 195.26 396.40 181.49
  Z
  M 397.4083 151.1105
  A 4.01 4.01 0.0 0 0 393.3704 147.1286
  L 384.3506 147.1916
  A 4.01 4.01 0.0 0 0 380.3687 151.2295
  L 380.3717 151.6495
  A 4.01 4.01 0.0 0 0 384.4096 155.6314
  L 393.4294 155.5684
  A 4.01 4.01 0.0 0 0 397.4113 151.5305
  L 397.4083 151.1105
  Z"
/>
<path fill="#ff6800" d="
  M 652.06 184.42
  C 651.88 175.00 648.19 167.98 640.31 162.72
  A 2.29 2.29 0.0 0 1 639.56 159.74
  L 639.84 159.21
  Q 641.26 156.51 643.81 158.19
  Q 657.33 167.09 657.77 183.53
  Q 657.85 186.66 654.72 186.56
  L 654.15 186.54
  A 2.16 2.16 0.0 0 1 652.06 184.42
  Z"
/>
<path fill="#ff6800" d="
  M 239.55 162.82
  C 231.67 168.13 228.15 175.06 227.92 184.45
  A 2.14 2.13 -89.4 0 1 225.81 186.53
  L 225.02 186.54
  A 2.73 2.73 0.0 0 1 222.25 183.76
  Q 222.50 167.60 235.59 158.58
  Q 237.92 156.97 239.63 159.22
  L 240.05 159.77
  A 2.13 2.13 0.0 0 1 239.55 162.82
  Z"
/>
<path fill="#ff6800" d="
  M 384.41 219.34
  C 404.60 223.27 426.49 219.85 442.82 206.78
  Q 443.22 206.46 443.72 206.52
  Q 460.59 208.68 476.51 214.66
  Q 476.97 214.83 476.94 215.33
  C 476.15 226.21 451.53 236.62 442.44 240.16
  C 436.00 242.67 429.30 244.64 423.50 248.04
  C 410.65 255.59 398.53 265.23 386.95 274.53
  A 0.31 0.31 0.0 0 1 386.45 274.33
  Q 384.85 263.23 383.11 252.22
  Q 380.60 236.34 383.53 219.94
  Q 383.67 219.19 384.41 219.34
  Z
  M 401.46 240.14
  A 4.00 4.00 0.0 0 0 397.46 236.14
  L 388.70 236.14
  A 4.00 4.00 0.0 0 0 384.70 240.14
  L 384.70 240.58
  A 4.00 4.00 0.0 0 0 388.70 244.58
  L 397.46 244.58
  A 4.00 4.00 0.0 0 0 401.46 240.58
  L 401.46 240.14
  Z"
/>
<path fill="#ff6800" d="
  M 396.53 341.48
  Q 396.37 336.84 395.75 332.25
  Q 392.57 308.44 388.49 284.71
  Q 388.42 284.32 388.73 284.07
  Q 403.39 272.01 419.02 261.03
  Q 429.30 253.81 439.17 250.43
  C 454.32 245.25 479.39 235.50 484.98 218.73
  Q 485.15 218.24 485.63 218.45
  C 519.55 233.28 542.50 261.01 550.41 297.11
  Q 551.40 301.61 552.95 312.43
  C 554.75 325.07 553.97 338.00 553.78 350.75
  Q 553.68 357.58 548.82 362.33
  C 544.32 366.72 540.05 367.47 533.36 367.47
  Q 439.01 367.47 344.67 367.48
  Q 336.13 367.48 333.04 366.03
  C 323.20 361.42 323.97 346.75 334.02 343.05
  Q 336.83 342.02 344.09 342.05
  Q 370.05 342.17 395.99 342.03
  Q 396.55 342.03 396.53 341.48
  Z
  M 473.10 330.06
  Q 473.31 330.83 472.71 330.31
  L 423.16 287.32
  A 0.29 0.28 20.5 0 0 422.69 287.53
  L 422.69 341.72
  A 0.28 0.28 0.0 0 0 422.97 342.00
  L 485.00 342.00
  A 0.57 0.57 0.0 0 0 485.53 341.22
  C 477.51 320.35 471.58 290.15 496.71 277.45
  A 3.13 3.13 0.0 0 0 498.02 273.11
  L 497.51 272.19
  Q 495.49 268.61 491.85 270.51
  C 469.08 282.33 466.91 308.10 473.10 330.06
  Z
  M 545.6396 295.2152
  A 4.01 4.01 0.0 0 0 541.6226 291.2122
  L 532.6426 291.2278
  A 4.01 4.01 0.0 0 0 528.6396 295.2448
  L 528.6404 295.6648
  A 4.01 4.01 0.0 0 0 532.6574 299.6678
  L 541.6374 299.6522
  A 4.01 4.01 0.0 0 0 545.6404 295.6352
  L 545.6396 295.2152
  Z"
/>
<rect fill="#ff6800" x="3.49" y="239.35" width="171.28" height="8.68" rx="4.30"/>
<rect fill="#ff6800" x="705.23" y="239.35" width="171.28" height="8.68" rx="4.30"/>
<rect fill="#ff6800" x="45.51" y="267.36" width="129.24" height="8.76" rx="4.34"/>
<rect fill="#ff6800" x="705.24" y="267.36" width="129.24" height="8.76" rx="4.34"/>
<rect fill="#ff6800" x="84.02" y="295.46" width="90.74" height="8.66" rx="4.28"/>
<rect fill="#ff6800" x="705.24" y="295.46" width="90.74" height="8.66" rx="4.28"/>
<rect fill="#ff6800" x="126.05" y="323.46" width="48.70" height="8.66" rx="4.24"/>
<rect fill="#ff6800" x="705.24" y="323.46" width="48.72" height="8.66" rx="4.24"/>
<path fill="#ff6800" d="
  M 227.91 367.32
  C 228.18 376.68 231.63 383.62 239.43 388.90
  A 2.29 2.29 0.0 0 1 240.15 391.91
  L 239.83 392.50
  A 2.72 2.72 0.0 0 1 235.94 393.43
  Q 222.62 384.50 222.24 368.24
  Q 222.16 365.12 225.28 365.22
  L 225.84 365.24
  A 2.13 2.13 0.0 0 1 227.91 367.32
  Z"
/>
<path fill="#ff6800" d="
  M 657.54 367.48
  C 657.96 378.26 652.72 388.03 643.56 393.58
  A 2.35 2.34 -33.7 0 1 640.44 392.96
  L 640.16 392.58
  Q 638.42 390.19 640.87 388.54
  Q 651.70 381.27 651.89 368.01
  Q 651.93 365.07 654.86 365.22
  L 655.32 365.24
  A 2.34 2.33 0.4 0 1 657.54 367.48
  Z"
/>
<path fill="#ff6800" d="
  M 324.23 449.19
  A 4.51 4.51 0.0 0 1 328.74 444.68
  L 340.04 444.68
  A 20.63 20.63 0.0 0 1 360.67 465.31
  L 360.67 469.99
  A 20.63 20.63 0.0 0 1 340.04 490.62
  L 328.74 490.62
  A 4.51 4.51 0.0 0 1 324.23 486.11
  L 324.23 449.19
  Z
  M 335.26 454.14
  L 335.16 481.20
  A 0.67 0.67 0.0 0 0 335.83 481.87
  L 337.73 481.87
  A 11.74 11.61 -89.8 0 0 349.38 470.17
  L 349.40 465.25
  A 11.74 11.61 -89.8 0 0 337.83 453.47
  L 335.93 453.47
  A 0.67 0.67 0.0 0 0 335.26 454.14
  Z"
/>
<path fill="#ff6800" d="
  M 446.60 449.47
  A 4.82 4.82 0.0 0 1 451.42 444.65
  L 462.48 444.65
  A 20.62 20.41 -0.0 0 1 483.10 465.06
  L 483.10 470.20
  A 20.62 20.41 -0.0 0 1 462.48 490.61
  L 451.42 490.61
  A 4.82 4.82 0.0 0 1 446.60 485.79
  L 446.60 449.47
  Z
  M 457.64 454.28
  L 457.54 481.08
  A 0.77 0.77 0.0 0 0 458.31 481.85
  L 460.42 481.86
  A 11.66 11.34 -89.8 0 0 471.80 470.23
  L 471.82 465.21
  A 11.66 11.34 -89.8 0 0 460.52 453.52
  L 458.41 453.51
  A 0.77 0.77 0.0 0 0 457.64 454.28
  Z"
/>
<path fill="#ff6800" d="
  M 383.6000 491.6300
  A 18.54 17.33 90.0 0 1 366.2700 473.0900
  A 18.54 17.33 90.0 0 1 383.6000 454.5500
  A 18.54 17.33 90.0 0 1 400.9300 473.0900
  A 18.54 17.33 90.0 0 1 383.6000 491.6300
  Z
  M 386.07 482.01
  C 391.79 479.12 390.94 460.71 381.81 463.87
  C 374.84 466.27 376.36 486.90 386.07 482.01
  Z"
/>
<path fill="#ff6800" d="
  M 409.94 488.97
  C 405.55 486.11 407.38 479.84 410.83 477.07
  Q 411.25 476.73 410.86 476.36
  Q 405.76 471.65 406.66 465.50
  C 407.97 456.51 417.08 453.78 424.90 454.96
  Q 428.45 455.50 430.16 455.52
  C 433.14 455.56 439.92 454.51 439.60 459.81
  Q 439.39 463.12 435.16 463.47
  Q 434.33 463.54 434.58 464.33
  Q 435.89 468.50 434.41 472.23
  C 431.60 479.34 424.22 479.68 417.68 479.31
  A 1.86 1.86 0.0 0 0 416.17 482.39
  Q 417.20 483.57 419.01 483.59
  C 424.93 483.66 436.26 482.61 439.51 489.15
  Q 440.94 492.04 439.99 495.28
  C 436.84 506.01 419.91 506.68 411.61 504.16
  C 408.81 503.31 406.14 500.73 405.80 497.72
  Q 405.30 493.24 409.97 489.68
  Q 410.45 489.31 409.94 488.97
  Z
  M 421.2200 473.0500
  A 5.57 4.58 90.0 0 0 425.8000 467.4800
  A 5.57 4.58 90.0 0 0 421.2200 461.9100
  A 5.57 4.58 90.0 0 0 416.6400 467.4800
  A 5.57 4.58 90.0 0 0 421.2200 473.0500
  Z
  M 428.25 492.27
  L 416.03 492.13
  A 1.41 1.41 0.0 0 0 414.60 493.52
  L 414.59 494.34
  A 5.85 4.11 0.7 0 0 420.39 498.52
  L 423.73 498.56
  A 5.85 4.11 0.7 0 0 429.63 494.52
  L 429.64 493.70
  A 1.41 1.41 0.0 0 0 428.25 492.27
  Z"
/>
<path fill="#ff6800" d="
  M 510.20 487.56
  A 0.39 0.39 0.0 0 0 509.53 487.37
  C 501.73 495.31 486.76 491.08 489.51 478.48
  C 491.18 470.79 501.30 468.65 508.01 468.15
  A 0.77 0.77 0.0 0 0 508.73 467.34
  C 508.46 462.06 500.49 463.22 497.37 464.47
  C 495.77 465.11 493.91 465.18 492.91 463.81
  C 489.53 459.16 494.46 456.27 498.23 455.41
  C 510.86 452.53 519.74 456.83 519.77 470.50
  Q 519.79 478.24 519.79 485.99
  C 519.78 492.01 511.37 493.19 510.20 487.56
  Z
  M 508.16 474.77
  C 505.41 475.05 500.31 476.15 499.75 479.23
  C 498.96 483.58 504.63 483.75 506.92 482.04
  C 509.10 480.41 509.05 477.67 508.70 475.19
  Q 508.63 474.72 508.16 474.77
  Z"
/>
<path fill="#ff6800" d="
  M 543.02 479.43
  Q 543.36 480.48 543.64 479.41
  L 548.90 459.11
  Q 550.08 454.57 554.63 455.69
  L 555.01 455.78
  Q 559.70 456.93 558.17 461.50
  Q 553.56 475.24 549.14 487.93
  C 545.72 497.73 541.75 506.06 529.39 503.92
  Q 527.31 503.56 527.81 501.51
  L 528.74 497.69
  A 2.62 2.61 5.3 0 1 531.15 495.70
  L 535.47 495.47
  A 1.00 1.00 0.0 0 0 536.31 494.92
  C 537.47 492.59 538.44 490.42 537.40 487.77
  Q 532.64 475.69 527.86 463.62
  C 526.41 459.99 526.18 456.94 530.50 455.64
  Q 535.33 454.20 536.72 459.01
  Q 539.76 469.49 543.02 479.43
  Z"
/>
<path fill="#ff6800" d="
  M 448.04 588.33
  C 449.82 587.69 452.08 586.25 454.37 585.40
  A 2.21 2.21 0.0 0 1 457.10 586.46
  L 457.28 586.81
  Q 458.60 589.35 456.14 590.81
  Q 440.30 600.22 424.35 591.11
  Q 421.84 589.68 423.01 587.05
  L 423.29 586.40
  A 2.01 2.01 0.0 0 1 426.18 585.50
  Q 437.20 592.25 448.04 588.33
  Z"
/>
</svg>
